control3min_grf.mot
version=1
nRows=20
nColumns 19
inDegrees=yes
endheader
time	1_ground_force_vx	1_ground_force_vy	1_ground_force_vz	1_ground_force_px	1_ground_force_py	1_ground_force_pz	1_ground_torque_x	1_ground_torque_y	1_ground_torque_z	2_ground_force_vx	2_ground_force_vy	2_ground_force_vz	2_ground_force_px	2_ground_force_py	2_ground_force_pz	2_ground_torque_x	2_ground_torque_y	2_ground_torque_z
            0.005000	           -7.097148	          940.788799	          -34.147707	           -0.317271	            0.006285	           -0.423456	           -0.041548	            5.507483	           -0.199905	          -10.577787	          794.228334	           47.607251	           -0.324135	            0.005171	           -0.657885	            0.079614	           -5.977815	           -0.358319
            0.005500	           -7.004191	          940.065788	          -33.692468	           -0.317330	            0.006285	           -0.423444	           -0.041707	            5.597738	           -0.200626	          -11.089874	          793.306211	           47.463401	           -0.324052	            0.005172	           -0.657889	            0.083785	           -5.993476	           -0.358589
            0.006000	           -6.636714	          939.163517	          -33.467959	           -0.317246	            0.006286	           -0.423615	           -0.041069	            5.811755	           -0.207107	          -11.088545	          792.937930	           47.462087	           -0.323946	            0.005172	           -0.657853	            0.084933	           -6.073516	           -0.363536
            0.006500	           -6.681610	          937.720203	          -33.198894	           -0.317218	            0.006286	           -0.423703	           -0.041509	            5.825555	           -0.206247	          -11.410657	          791.280590	           47.127816	           -0.323835	            0.005171	           -0.657459	            0.086607	           -6.005839	           -0.357701
            0.007000	           -6.863889	          936.096370	          -32.884408	           -0.317318	            0.006287	           -0.423821	           -0.041906	            5.715120	           -0.200768	          -11.408889	          790.729948	           46.609635	           -0.323744	            0.005172	           -0.657623	            0.085253	           -5.908725	           -0.348290
            0.007500	           -7.091819	          935.913867	          -32.380193	           -0.317171	            0.006287	           -0.423791	           -0.042443	            5.601210	           -0.193787	          -11.502088	          790.546747	           46.233593	           -0.323722	            0.005172	           -0.657676	            0.085773	           -5.895208	           -0.344770
            0.008000	           -6.998504	          934.469400	          -31.836334	           -0.317141	            0.006287	           -0.423885	           -0.041499	            5.541166	           -0.188781	          -11.634204	          788.154023	           45.755830	           -0.323785	            0.005171	           -0.657449	            0.087707	           -5.941661	           -0.344940
            0.008500	           -7.181223	          933.387045	          -31.657092	           -0.317185	            0.006287	           -0.423853	           -0.043072	            5.598277	           -0.189873	          -11.817718	          787.049339	           45.517327	           -0.323628	            0.005172	           -0.657439	            0.089005	           -5.927666	           -0.342814
            0.009000	           -7.088704	          931.943955	          -31.434228	           -0.317207	            0.006287	           -0.423782	           -0.043197	            5.679055	           -0.191553	          -11.861992	          786.313154	           45.327006	           -0.323447	            0.005172	           -0.657416	            0.090488	           -5.998295	           -0.345772
            0.009500	           -7.408790	          931.221650	          -31.161388	           -0.317005	            0.006287	           -0.423842	           -0.045317	            5.695936	           -0.190603	          -12.470417	          786.127211	           45.232752	           -0.323258	            0.005174	           -0.657728	            0.093984	           -5.924694	           -0.340899
            0.010000	           -6.949139	          930.138314	          -30.754457	           -0.316822	            0.006287	           -0.423714	           -0.042282	            5.659479	           -0.187127	          -12.690751	          782.259562	           45.125197	           -0.323446	            0.005171	           -0.657121	            0.095189	           -5.867442	           -0.338468
            0.010500	           -7.406832	          927.974448	          -30.625030	           -0.316840	            0.006287	           -0.423922	           -0.044235	            5.541982	           -0.182897	          -12.782559	          781.707577	           44.888625	           -0.323177	            0.005173	           -0.657332	            0.095329	           -5.829771	           -0.334768
            0.011000	           -7.313646	          925.989608	          -30.175201	           -0.316959	            0.006288	           -0.423998	           -0.043328	            5.485757	           -0.178764	          -13.106809	          780.603892	           44.227829	           -0.323148	            0.005173	           -0.657273	            0.096516	           -5.748232	           -0.325686
            0.011500	           -7.174502	          924.004580	          -29.679626	           -0.316852	            0.006288	           -0.424134	           -0.042197	            5.434610	           -0.174563	          -12.910996	          778.212520	           43.702999	           -0.323113	            0.005172	           -0.657069	            0.096332	           -5.806457	           -0.326080
            0.012000	           -7.311474	          922.201442	          -29.595303	           -0.316938	            0.006289	           -0.424177	           -0.043449	            5.480224	           -0.175871	          -13.044981	          776.371153	           43.508775	           -0.323062	            0.005172	           -0.656867	            0.097584	           -5.807699	           -0.325470
            0.012500	           -7.173455	          920.758950	          -29.510116	           -0.316854	            0.006288	           -0.424152	           -0.043589	            5.594905	           -0.179315	          -13.459381	          774.344524	           43.360943	           -0.323130	            0.005171	           -0.656788	            0.100941	           -5.807347	           -0.325194
            0.013000	           -7.081311	          919.496745	          -29.424043	           -0.316819	            0.006288	           -0.424115	           -0.043427	            5.638869	           -0.180445	          -13.780787	          772.502647	           43.119871	           -0.322912	            0.005171	           -0.656632	            0.102670	           -5.755335	           -0.321254
            0.013500	           -7.171574	          916.070334	          -29.117514	           -0.316915	            0.006289	           -0.424384	           -0.043462	            5.551631	           -0.176460	          -14.195166	          770.475851	           43.018967	           -0.322959	            0.005171	           -0.656675	            0.104723	           -5.684059	           -0.317365
            0.014000	           -7.125438	          915.709357	          -29.027462	           -0.316705	            0.006288	           -0.424015	           -0.042087	            5.408709	           -0.171453	          -14.191240	          769.371509	           42.874240	           -0.322798	            0.005172	           -0.656642	            0.104308	           -5.654997	           -0.315132
            0.014500	           -7.399142	          913.904939	          -28.621801	           -0.316622	            0.006288	           -0.424146	           -0.042656	            5.268710	           -0.165006	          -14.094526	          768.453593	           42.166993	           -0.322547	            0.005173	           -0.656700	            0.103379	           -5.636394	           -0.309283
